HIERARCHY
ROOT Hips
{
	OFFSET 0.00000 0.00000 0.00000
	CHANNELS 6 Xposition Yposition Zposition Zrotation Yrotation Xrotation 
	JOINT LHipJoint
	{
		OFFSET 0 0 0
		CHANNELS 3 Zrotation Yrotation Xrotation
		JOINT LeftUpLeg
		{
			OFFSET 3.13874 -1.57224 1.49786
			CHANNELS 3 Zrotation Yrotation Xrotation
			JOINT LeftLeg
			{
				OFFSET 2.10955 -5.79594 0.00000
				CHANNELS 3 Zrotation Yrotation Xrotation
				JOINT LeftFoot
				{
					OFFSET 2.41843 -6.64458 0.00000
					CHANNELS 3 Zrotation Yrotation Xrotation
					JOINT LeftToeBase
					{
						OFFSET 0.04713 -0.12948 1.66229
						CHANNELS 3 Zrotation Yrotation Xrotation
						End Site
						{
							OFFSET 0.00000 -0.00000 0.85167
						}
					}
				}
			}
		}
	}
	JOINT RHipJoint
	{
		OFFSET 0 0 0
		CHANNELS 3 Zrotation Yrotation Xrotation
		JOINT RightUpLeg
		{
			OFFSET -3.13988 -1.57224 1.49786
			CHANNELS 3 Zrotation Yrotation Xrotation
			JOINT RightLeg
			{
				OFFSET -2.15006 -5.90725 0.00000
				CHANNELS 3 Zrotation Yrotation Xrotation
				JOINT RightFoot
				{
					OFFSET -2.34496 -6.44273 0.00000
					CHANNELS 3 Zrotation Yrotation Xrotation
					JOINT RightToeBase
					{
						OFFSET -0.08699 -0.23900 1.55223
						CHANNELS 3 Zrotation Yrotation Xrotation
						End Site
						{
							OFFSET -0.00000 -0.00000 0.80281
						}
					}
				}
			}
		}
	}
	JOINT LowerBack
	{
		OFFSET 0 0 0
		CHANNELS 3 Zrotation Yrotation Xrotation
		JOINT Spine
		{
			OFFSET 0.01292 1.96517 -0.16495
			CHANNELS 3 Zrotation Yrotation Xrotation
			JOINT Spine1
			{
				OFFSET 0.02122 1.88666 0.19706
				CHANNELS 3 Zrotation Yrotation Xrotation
				JOINT Neck
				{
					OFFSET 0 0 0
					CHANNELS 3 Zrotation Yrotation Xrotation
					JOINT Neck1
					{
						OFFSET -0.01683 1.81591 0.07903
						CHANNELS 3 Zrotation Yrotation Xrotation
						JOINT Head
						{
							OFFSET 0.00815 1.74013 -0.47700
							CHANNELS 3 Zrotation Yrotation Xrotation
							End Site
							{
								OFFSET -0.00204 1.83225 -0.16933
							}
						}
					}
				}
				JOINT LeftShoulder
				{
					OFFSET 0 0 0
					CHANNELS 3 Zrotation Yrotation Xrotation
					JOINT LeftArm
					{
						OFFSET 3.38482 1.41533 0.19802
						CHANNELS 3 Zrotation Yrotation Xrotation
						JOINT LeftForeArm
						{
							OFFSET 4.32712 -0.00000 0.00000
							CHANNELS 3 Zrotation Yrotation Xrotation
							JOINT LeftHand
							{
								OFFSET 3.28587 -0.00000 -0.00000
								CHANNELS 3 Zrotation Yrotation Xrotation
								JOINT LeftFingerBase
								{
									OFFSET 0 0 0
									CHANNELS 3 Zrotation Yrotation Xrotation
									JOINT LeftHandIndex1
									{
										OFFSET 0.43316 -0.00000 -0.00000
										CHANNELS 3 Zrotation Yrotation Xrotation
										End Site
										{
											OFFSET 0.34922 -0.00000 -0.00000
										}
									}
								}
								JOINT LThumb
								{
									OFFSET 0 0 0
									CHANNELS 3 Zrotation Yrotation Xrotation
									End Site
									{
										OFFSET 0.35456 -0.00000 0.35456
									}
								}
							}
						}
					}
				}
				JOINT RightShoulder
				{
					OFFSET 0 0 0
					CHANNELS 3 Zrotation Yrotation Xrotation
					JOINT RightArm
					{
						OFFSET -3.09725 1.62858 -0.14144
						CHANNELS 3 Zrotation Yrotation Xrotation
						JOINT RightForeArm
						{
							OFFSET -4.29104 -0.00000 0.00000
							CHANNELS 3 Zrotation Yrotation Xrotation
							JOINT RightHand
							{
								OFFSET -3.22720 -0.00000 -0.00000
								CHANNELS 3 Zrotation Yrotation Xrotation
								JOINT RightFingerBase
								{
									OFFSET 0 0 0
									CHANNELS 3 Zrotation Yrotation Xrotation
									JOINT RightHandIndex1
									{
										OFFSET -0.54362 -0.00000 -0.00000
										CHANNELS 3 Zrotation Yrotation Xrotation
										End Site
										{
											OFFSET -0.43828 -0.00000 -0.00000
										}
									}
								}
								JOINT RThumb
								{
									OFFSET 0 0 0
									CHANNELS 3 Zrotation Yrotation Xrotation
									End Site
									{
										OFFSET -0.44497 -0.00000 0.44497
									}
								}
							}
						}
					}
				}
			}
		}
	}
}
MOTION
Frames: 8
Frame Time: .0083333
24.7388 15.9912 1.7185 0 0 0 0 0 0 -21 0 0 0 0 0 0 0 0 0 0 0 0 0 0 21 0 0 0 0 0 0 0 0 0 0 0 0 0 0 0 0 0 0 0 0 0 0 -16 0 0 21 0 0 11 0 0 0 -8 0 0 0 0 0 0 0 0 0 0 0 0 0 0 0 0 0 0 0 0 8 0 0 0 0 0 0 0 0 0 0 0 0 0 0 0 0 0
24.7388 15.9912 1.7185 -100.7010 -84.4866 114.3070 0.0000 0.0000 0.0000 -26.3902 -32.6542 10.0851 0.0000 0.0156 0.0429 4.7336 12.8617 -46.6129 9.2179 -16.9459 -56.8407 0.0000 0.0000 0.0000 27.7573 32.9393 -0.9527 -0.1099 2.1374 -5.8854 1.5083 -24.6481 -23.1554 -0.4369 4.2417 -11.7575 3.4770 0.7670 8.0918 2.9055 1.6721 -9.6009 0.9865 0.4952 -15.2292 -9.9591 -7.8326 -12.8527 8.1603 -11.0812 21.6856 3.0305 -5.2475 10.0337 0.0000 -0.0000 0.0000 -85.8620 9.7992 39.2424 19.3887 -29.8988 -5.2232 -0.0000 -0.0000 1.9209 31.0926 30.6935 17.1100 -7.1250 0.0000 -0.0000 -0.3209 64.7089 -0.1530 0.0000 -0.0000 0.0000 67.6200 -9.9425 49.0158 -21.2004 32.0615 -6.1560 0.0000 -0.0000 -15.2879 -20.1832 -22.6510 8.0576 7.1250 -0.0000 -0.0000 9.2400 -53.7140 -1.9929
24.7542 15.9859 1.7686 -105.1980 -84.3664 118.7240 0.0000 0.0000 0.0000 -28.0532 -35.0601 13.0122 0.0040 -0.4100 -1.1265 5.4545 13.9954 -49.9323 9.0095 -16.8138 -56.1230 0.0000 0.0000 0.0000 27.8262 33.1216 -0.2938 -0.1423 2.4313 -6.6991 1.5703 -24.9366 -23.1750 -0.4187 4.1535 -11.5089 3.4190 0.8194 7.8058 2.9059 1.7131 -9.6016 1.0120 0.5208 -15.0460 -10.3604 -8.0977 -12.6058 7.8155 -11.3453 21.9781 2.9415 -5.4469 10.1233 0.0000 -0.0000 0.0000 -85.9492 9.9196 39.5030 19.5911 -30.1466 -5.3245 -0.0000 -0.0000 1.6179 31.0436 30.8064 17.1321 -7.1250 0.0000 -0.0000 -0.4402 64.8152 -0.2110 0.0000 -0.0000 0.0000 67.5858 -9.6217 49.1747 -21.3580 32.2439 -6.2398 0.0000 -0.0000 -14.4513 -19.9101 -24.1339 8.4238 7.1250 -0.0000 -0.0000 10.1311 -55.1718 -2.5495
24.7681 15.9775 1.8167 -110.0160 -84.2398 123.4350 0.0000 0.0000 0.0000 -30.1300 -37.6750 16.3446 0.0147 -0.7840 -2.1545 6.3724 15.0707 -53.6729 8.7816 -16.6651 -55.3316 0.0000 0.0000 0.0000 27.8507 33.3470 0.3365 -0.1726 2.6765 -7.3795 1.6567 -25.2725 -23.0514 -0.4372 4.2430 -11.7612 3.1307 0.9334 7.3822 2.9594 1.8028 -9.5667 1.2160 0.6000 -14.7395 -10.8072 -8.3394 -12.0724 7.5596 -11.5933 21.9921 2.9043 -5.6425 10.0668 0.0000 -0.0000 0.0000 -86.1065 9.9881 39.7889 19.6843 -30.2601 -5.3713 -0.0000 -0.0000 1.5478 30.9623 30.6042 16.9850 -7.1250 0.0000 -0.0000 -0.4482 64.5766 -0.2124 0.0000 -0.0000 0.0000 67.4414 -9.4610 49.3404 -21.5246 32.4355 -6.3289 0.0000 -0.0000 -14.0271 -18.7885 -25.4725 8.3241 7.1250 -0.0000 -0.0000 11.9189 -56.2924 -3.3340
24.7801 15.9655 1.8613 -114.7030 -84.0663 128.0040 0.0000 0.0000 0.0000 -32.7196 -40.6279 20.2431 0.0275 -1.0713 -2.9449 7.7536 15.1210 -58.1561 8.3551 -16.3743 -53.8318 0.0000 0.0000 0.0000 27.8727 33.6051 0.9218 -0.1999 2.8793 -7.9429 1.7261 -25.5506 -22.9803 -0.4458 4.2837 -11.8761 3.0940 0.8854 7.3208 2.8921 1.7184 -9.5988 1.1793 0.5582 -14.7366 -10.9872 -8.5137 -12.1671 7.2350 -11.7504 22.3381 2.7892 -5.7627 10.2171 0.0000 0.0000 0.0000 -86.0916 10.1838 39.4797 19.6451 -30.2123 -5.3516 -0.0000 -0.0000 1.7409 31.3904 30.1847 17.0554 -7.1250 0.0000 -0.0000 0.3051 64.2494 0.1423 0.0000 0.0000 0.0000 67.5315 -9.1757 49.9032 -21.6432 32.5714 -6.3927 0.0000 -0.0000 -13.9398 -17.8946 -26.1975 8.1125 7.1250 -0.0000 -0.0000 13.2245 -56.8273 -3.8799
24.7936 15.9524 1.9038 -118.3190 -83.8318 131.4990 0.0000 0.0000 0.0000 -35.9535 -43.9089 24.8753 0.0387 -1.2698 -3.4915 9.5368 14.5799 -63.2869 7.8167 -15.9828 -51.8999 0.0000 0.0000 0.0000 27.9340 33.8277 1.4417 -0.2251 3.0540 -8.4291 1.7304 -25.6468 -23.1839 -0.3980 4.0506 -11.2192 3.0590 0.8861 7.1251 2.8810 1.6984 -9.5958 1.1913 0.5516 -14.6074 -11.1731 -8.7726 -12.0149 6.9081 -12.0166 22.3561 2.6680 -5.9389 10.2143 -0.0000 0.0000 0.0000 -86.1307 10.3309 39.3273 19.6057 -30.1644 -5.3318 -0.0000 -0.0000 1.8151 31.8616 30.4107 17.4640 -7.1250 0.0000 -0.0000 0.8218 64.6253 0.3904 -0.0000 0.0000 0.0000 67.5331 -8.9584 50.5021 -21.8192 32.7720 -6.4877 0.0000 -0.0000 -14.3509 -18.4518 -25.1009 8.0563 7.1250 -0.0000 -0.0000 12.0859 -55.8521 -3.2520
24.8078 15.9398 1.9455 -121.2000 -83.5388 134.2420 0.0000 0.0000 0.0000 -40.4107 -47.7226 30.8971 0.0441 -1.3554 -3.7273 11.7380 14.2358 -69.3109 7.3098 -15.5873 -50.0365 0.0000 0.0000 0.0000 28.0212 34.0658 1.8525 -0.2415 3.1623 -8.7310 1.6050 -25.3653 -23.8549 -0.2700 3.3425 -9.2337 3.1879 0.8515 6.9831 2.8735 1.6567 -9.5553 1.1187 0.5182 -14.4638 -11.5121 -8.9723 -11.8852 6.8807 -12.2158 22.1807 2.6864 -6.0622 10.1703 0.0000 -0.0000 0.0000 -86.1788 10.3536 38.9844 19.5120 -30.0500 -5.2848 -0.0000 -0.0000 1.8568 31.9996 31.1773 17.9255 -7.1250 0.0000 -0.0000 0.6511 65.4862 0.3223 0.0000 -0.0000 0.0000 67.5272 -8.6917 51.2192 -21.9924 32.9685 -6.5817 0.0000 -0.0000 -14.8375 -19.0760 -23.5287 7.8601 7.1250 -0.0000 -0.0000 10.7257 -54.3956 -2.4980
24.8226 15.9242 1.9857 -124.3000 -83.2096 137.1990 0.0000 0.0000 0.0000 -41.0119 -46.7261 31.9626 0.0748 -1.7645 -4.8553 12.0292 12.2460 -69.6282 6.8225 -15.1806 -48.1999 0.0000 0.0000 0.0000 28.0302 34.4130 2.0979 -0.2457 3.1900 -8.8081 1.5409 -25.2078 -24.1531 -0.2145 2.9818 -8.2282 3.1499 0.8295 6.9848 2.8611 1.6181 -9.5733 1.1343 0.5019 -14.4871 -11.7489 -9.0944 -11.5959 7.0791 -12.3938 21.8560 2.7792 -6.1501 10.0488 -0.0000 0.0000 0.0000 -86.0873 10.5548 38.5924 19.4261 -29.9446 -5.2418 -0.0000 -0.0000 1.9716 31.1613 28.7465 16.2155 -7.1250 0.0000 -0.0000 0.6163 62.6397 0.2641 -0.0000 0.0000 0.0000 67.6348 -8.5633 51.5498 -22.0145 32.9935 -6.5938 0.0000 -0.0000 -14.5290 -19.2737 -22.9871 7.7761 7.1250 -0.0000 -0.0000 10.2975 -53.8849 -2.2678
